<svg xmlns="http://www.w3.org/2000/svg" xmlns:xlink="http://www.w3.org/1999/xlink" version="1.1" viewBox="-120.04 -607.67 1720.04 2636.67">
<g id="layer1" opacity="0.0">
<g style="fill:rgb(0,0,0); fill-opacity:1.0; stroke-linejoin: miter">
<path d="M0.0,428.99963L800.0,429.00012L1600.0,429.00064L1600.0,2028.9996Q800.0,2029.0002,0.0,2029.0009Q0.0,1229.0002,0.0,428.99963"/>
</g>
<g style="fill:rgb(132,0,175); fill-opacity:1.0; stroke-linejoin: miter">
<path d="M1.4529252,0.0L1.4529252,0.0L1.4529252,0.001L-1.4529252,0.001L-1.4529252,0.0L1.4529252,0.0L1.4529252,0.001L-1.4529252,0.001L-1.4529252,0.0L1.4529252,0.0 M-1.4529252,0.0C-1.4529252,-0.8024285,-0.8024285,-1.4529252,0.0,-1.4529252C0.8024285,-1.4529252,1.4529252,-0.8024285,1.4529252,0.0L1.4529252,0.0L1.4529252,0.001C1.4529252,0.8034285,0.8024285,1.4539253,0.0,1.4539253C-0.8024285,1.4539253,-1.4529252,0.8034285,-1.4529252,0.001L-1.4529252,0.001L-1.4529252,0.0C-1.4529252,-0.8024285,-0.8024285,-1.4529252,0.0,-1.4529252C0.8024285,-1.4529252,1.4529252,-0.8024285,1.4529252,0.0L1.4529252,0.0L1.4529252,0.001C1.4529252,0.8034285,0.8024285,1.4539253,0.0,1.4539253C-0.8024285,1.4539253,-1.4529252,0.8034285,-1.4529252,0.001L-1.4529252,0.001L-1.4529252,0.0 Z"/>
</g>
<g style="fill:rgb(132,0,175); fill-opacity:1.0; stroke-linejoin: miter">
<path d="M1.4529252,0.0L1.4529252,0.0L1.4529252,0.001L-1.4529252,0.001L-1.4529252,0.0L1.4529252,0.0L1.4529252,0.001L-1.4529252,0.001L-1.4529252,0.0L1.4529252,0.0 M-1.4529252,0.0C-1.4529252,-0.8024285,-0.8024285,-1.4529252,0.0,-1.4529252C0.8024285,-1.4529252,1.4529252,-0.8024285,1.4529252,0.0L1.4529252,0.0L1.4529252,0.001C1.4529252,0.8034285,0.8024285,1.4539253,0.0,1.4539253C-0.8024285,1.4539253,-1.4529252,0.8034285,-1.4529252,0.001L-1.4529252,0.001L-1.4529252,0.0C-1.4529252,-0.8024285,-0.8024285,-1.4529252,0.0,-1.4529252C0.8024285,-1.4529252,1.4529252,-0.8024285,1.4529252,0.0L1.4529252,0.0L1.4529252,0.001C1.4529252,0.8034285,0.8024285,1.4539253,0.0,1.4539253C-0.8024285,1.4539253,-1.4529252,0.8034285,-1.4529252,0.001L-1.4529252,0.001L-1.4529252,0.0 Z"/>
</g>
</g>
<g id="layer2" opacity="0.0">
</g>
<g id="layer3" opacity="0.0">
<g style="fill:rgb(132,0,175); fill-opacity:1.0; stroke-linejoin: miter">
<path d="M-96.92194,-606.1605L-96.92194,-606.1605L-96.92198,-606.15955L-99.82562,-606.27295L-99.825584,-606.2739L-96.92194,-606.1605L-96.92198,-606.15955L-99.82562,-606.27295L-99.825584,-606.2739L-96.92194,-606.1605 M-99.825584,-606.2739C-99.794266,-607.07574,-99.11887,-607.7004,-98.317055,-607.66907C-97.515236,-607.63776,-96.890625,-606.96234,-96.92194,-606.1605L-96.92194,-606.1605L-96.92198,-606.15955C-96.9533,-605.3577,-97.62869,-604.7331,-98.43051,-604.7644C-99.23233,-604.7957,-99.85694,-605.4711,-99.82562,-606.27295L-99.82562,-606.27295L-99.825584,-606.2739C-99.794266,-607.07574,-99.11887,-607.7004,-98.317055,-607.66907C-97.515236,-607.63776,-96.890625,-606.96234,-96.92194,-606.1605L-96.92194,-606.1605L-96.92198,-606.15955C-96.9533,-605.3577,-97.62869,-604.7331,-98.43051,-604.7644C-99.23233,-604.7957,-99.85694,-605.4711,-99.82562,-606.27295L-99.82562,-606.27295L-99.825584,-606.2739 Z"/>
</g>
<g>
<g style="fill:rgb(254,254,254); fill-opacity:1.0; stroke-linejoin: miter">
<path d="M1014.84906,1159.1075L1014.84906,1159.1075C1014.84906,1296.6857,903.3198,1408.215,765.7416,1408.215L765.7416,1408.215C628.1632,1408.215,516.6341,1296.6857,516.6341,1159.1075L516.6341,1159.1075C516.6341,1021.5292,628.1633,910.0002,765.7416,910.0002L765.7416,910.0002C903.3198,910.0002,1014.84906,1021.5293,1014.84906,1159.1075L1014.84906,1159.1075 M966.22345,1159.1075L966.22345,1159.1075C966.22345,1048.3844,876.46466,958.6258,765.7416,958.6258L765.7416,958.6258C655.0185,958.6258,565.2597,1048.3845,565.2597,1159.1075L565.2597,1159.1075C565.2597,1269.8306,655.0183,1359.5892,765.7416,1359.5892L765.7416,1359.5892C876.46466,1359.5892,966.22345,1269.8306,966.22345,1159.1075 Z"/>
</g>
<g style="fill:rgb(254,254,254); fill-opacity:1.0; stroke-linejoin: miter">
<path d="M1054.2921,1112.7112L1054.2921,1112.7112L1054.2921,1203.7933L1054.2921,1243.5638L974.7511,1243.5638L974.7511,1203.7933L974.7511,1112.7112L974.7511,1072.9407L1054.2921,1072.9407 Z"/>
</g>
</g>
<g>
<g style="fill:rgb(254,254,254); fill-opacity:1.0; stroke-linejoin: miter">
<path d="M487.69678,685.15436L487.69678,685.15533L487.69678,685.15533L487.69678,685.15533L487.69678,685.15436 Z M1049.0685,750.3368Q1057.9384,750.3368,1064.4573,755.86444Q1071.5864,761.9096,1072.6531,771.809L1072.7007,774.9941Q1071.9727,784.69196,1065.094,791.0363Q1058.4354,797.13153,1048.8325,797.13153Q1048.4408,797.13153,1048.0442,797.1214Q1038.3464,796.394,1032.0022,789.51514Q1029.9675,787.2903,1028.5466,784.58606L1027.3088,781.7875Q1026.2396,778.8819,1025.9644,775.6504Q1025.3986,765.7097,1031.4436,758.58093Q1037.4886,751.4521,1047.388,750.3852Q1048.2385,750.3368,1049.0685,750.3368 Z M1107.3098,862.12634L1107.3098,1470.6235L1107.3098,1470.6245L422.53394,1470.6248L422.53394,862.12854L422.52966,862.12854Q764.9143,862.12695,1107.2986,862.12634 Z M398.22095,685.15424C391.7729,685.15424,385.5888,687.7158,381.02936,692.27515C376.46985,696.83484,373.90826,703.01886,373.90833,709.467L373.90826,1494.9373C373.90826,1501.3855,376.46973,1507.5693,381.02936,1512.1292C385.58887,1516.6887,391.77295,1519.2502,398.2212,1519.2502L1131.6226,1519.249L1131.6228,1519.249C1145.05,1519.249,1155.9353,1508.3638,1155.9353,1494.9363L1155.9353,709.46814C1155.9353,696.04065,1145.0498,685.15533,1131.6226,685.15533L1024.783,685.15515L1024.783,685.1561L1024.7927,733.7528C1024.7981,759.7316,1005.6705,781.24615,980.7281,784.9729L980.7379,784.9729Q979.0479,787.73065,976.5409,790.0429Q969.8822,796.1381,960.27936,796.1381Q959.8876,796.1381,959.49097,796.128Q949.79333,795.4006,943.44904,788.5217Q941.41437,786.2969,939.99347,783.59265L938.7557,780.79407Q937.68646,777.8885,937.41113,774.657Q937.31537,772.9745,937.409,771.37256L937.4184,771.37256C927.4514,761.93713,921.2328,748.5822,921.2297,733.77423L921.21967,685.155L921.21967,685.156L591.2598,685.15454L591.2598,685.1555L591.25006,733.14667C591.24927,736.9424,590.8401,740.6427,590.0641,744.20593L647.9283,744.20593C661.09344,744.20593,671.7659,754.87823,671.7659,768.0434C671.7659,781.20844,661.09344,791.8809,647.9283,791.881L467.77875,791.8809C454.61365,791.88086,443.94116,781.2085,443.94116,768.0434C443.94116,754.87836,454.6136,744.20593,467.77863,744.20593C467.7787,744.20593,467.77872,744.20593,467.77875,744.20593L488.8731,744.20593C488.09558,740.63586,487.6863,736.92834,487.68707,733.1251L487.69678,685.15533L487.69678,685.15533L398.2212,685.15424 Z"/>
</g>
<g style="fill:rgb(254,254,254); fill-opacity:1.0; stroke-linejoin: miter">
<path d="M467.77863,744.20593C467.7787,744.20593,467.77872,744.20593,467.77875,744.20593L647.9283,744.20593C661.09344,744.20593,671.7659,754.87823,671.7659,768.0434C671.7659,781.20844,661.09344,791.8809,647.9283,791.881L467.77875,791.8809C454.61365,791.88086,443.94116,781.2085,443.94116,768.0434C443.94116,754.87836,454.6136,744.20593,467.77863,744.20593 Z M960.5152,749.3434Q969.38525,749.3434,975.9042,754.87103Q983.0333,760.9162,984.09985,770.8156L984.14746,774.0007Q983.41956,783.69855,976.5409,790.0429Q969.8822,796.1381,960.27936,796.1381Q959.8876,796.1381,959.49097,796.128Q949.79333,795.4006,943.44904,788.5217Q941.41437,786.2969,939.99347,783.59265L938.7557,780.79407Q937.68646,777.8885,937.41113,774.657Q936.8454,764.7163,942.8904,757.5875Q948.9355,750.4587,958.8347,749.3918Q959.68524,749.3434,960.5152,749.3434 Z M1049.0685,750.3368Q1057.9384,750.3368,1064.4573,755.86444Q1071.5864,761.9096,1072.6531,771.809L1072.7007,774.9941Q1071.9727,784.69196,1065.094,791.0363Q1058.4354,797.13153,1048.8325,797.13153Q1048.4408,797.13153,1048.0442,797.1214Q1038.3464,796.394,1032.0022,789.51514Q1029.9675,787.2903,1028.5466,784.58606L1027.3088,781.7875Q1026.2396,778.8819,1025.9644,775.6504Q1025.3986,765.7097,1031.4436,758.58093Q1037.4886,751.4521,1047.388,750.3852Q1048.2385,750.3368,1049.0685,750.3368 Z M442.93405,685.15424Q442.93405,745.12366,442.93405,805.0931Q763.0492,805.0924,1083.1644,805.0918Q1083.1644,745.12366,1083.1644,685.1556L763.0492,685.1549L442.93405,685.15424 Z"/>
</g>
</g>
<g style="fill:rgb(254,254,254); fill-opacity:1.0; stroke-linejoin: miter">
<path d="M768.2955,-79.11156L768.2955,-79.11156L768.2955,-79.11156L768.2955,-79.11156L768.2955,-79.11156L768.2955,-79.11156L768.2955,-79.11156L768.2955,-79.11156L768.2955,-79.11156L768.2955,-79.11156 M764.8189,-71.634415L764.8189,-71.634415L764.8189,-71.634415L764.8189,-71.634415L764.8189,-71.634415L764.8189,-71.634415L764.8189,-71.634415L764.8189,-71.634415L764.8189,-71.634415 Z"/>
</g>
<g style="fill:rgb(254,254,254); fill-opacity:1.0; stroke-linejoin: miter">
<path d="M911.06396,465.51248L983.5066,552.09766L1055.9492,638.68286L911.06396,465.51248"/>
</g>
<g style="fill:rgb(254,254,254); fill-opacity:1.0; stroke-linejoin: miter">
<path d="M684.998,1212.0134L728.68427,1126.5498L772.37054,1041.086L684.998,1212.0134"/>
</g>
<g style="fill:rgb(254,254,254); fill-opacity:1.0; stroke-linejoin: miter">
<path d="M693.5014,1194.1554L706.94745,1161.5219L720.3935,1128.8883L693.5014,1194.1554"/>
</g>
<g style="fill:rgb(254,254,254); fill-opacity:1.0; stroke-linejoin: miter">
<path d="M696.4776,1185.12L730.8102,1121.66L765.1427,1058.2001L696.4776,1185.12"/>
</g>
<g style="fill:rgb(254,254,254); fill-opacity:1.0; stroke-linejoin: miter">
<path d="M635.92645,1080.8832L635.92645,1080.8842C634.55817,1080.8832,633.19196,1080.9122,631.8276,1080.9707C620.88965,1081.4397,610.1459,1083.8014,599.5003,1088.2156C596.1586,1089.6012,592.8265,1091.1901,589.5042,1092.9604L589.5102,1092.9614C583.2176,1111.5859,579.4605,1131.7021,579.04926,1153.3307C578.7205,1170.6178,581.1166,1187.2319,585.42773,1203.1641L593.3112,1226.328C599.5852,1241.3561,607.55963,1255.2874,617.35767,1268.0278C647.7699,1307.5718,688.5538,1331.8842,739.76746,1339.9337C748.71155,1341.3394,757.56335,1341.4772,766.16943,1341.4773C808.8584,1341.4772,846.80927,1328.8835,879.8668,1303.4938C919.43036,1273.1074,943.34705,1232.2366,951.7718,1181.0828L953.6409,1155.6785C953.62396,1154.7883,953.60223,1153.9008,953.57587,1153.0157L953.56635,1153.0167C946.7172,1159.0964,939.4895,1164.6906,931.8856,1169.1315C917.315,1177.6415,901.2264,1181.9673,884.34656,1182.691C882.637,1182.7645,880.9192,1182.8008,879.1937,1182.8008C859.15405,1182.8008,838.10504,1177.8956,817.3205,1169.0039C810.86664,1166.2429,804.4382,1163.0979,798.0297,1159.673C780.7364,1150.431,763.7634,1139.2444,747.1537,1128.2875L747.1533,1128.2885L747.0115,1128.1937L747.0116,1128.1947L746.9026,1128.1217C731.3824,1117.8838,716.14154,1107.8304,701.504,1100.0077C678.66895,1087.8035,657.0508,1080.883,635.92645,1080.8832L635.92645,1080.8842 Z"/>
</g>
</g>
<g id="layer4" opacity="0.0">
<g style="fill:rgb(132,0,175); fill-opacity:1.0; stroke-linejoin: miter">
<path d="M-96.92194,-606.1605L-96.92194,-606.1605L-96.92198,-606.15955L-99.82562,-606.27295L-99.825584,-606.2739L-96.92194,-606.1605L-96.92198,-606.15955L-99.82562,-606.27295L-99.825584,-606.2739L-96.92194,-606.1605 M-99.825584,-606.2739C-99.794266,-607.07574,-99.11887,-607.7004,-98.317055,-607.66907C-97.515236,-607.63776,-96.890625,-606.96234,-96.92194,-606.1605L-96.92194,-606.1605L-96.92198,-606.15955C-96.9533,-605.3577,-97.62869,-604.7331,-98.43051,-604.7644C-99.23233,-604.7957,-99.85694,-605.4711,-99.82562,-606.27295L-99.82562,-606.27295L-99.825584,-606.2739C-99.794266,-607.07574,-99.11887,-607.7004,-98.317055,-607.66907C-97.515236,-607.63776,-96.890625,-606.96234,-96.92194,-606.1605L-96.92194,-606.1605L-96.92198,-606.15955C-96.9533,-605.3577,-97.62869,-604.7331,-98.43051,-604.7644C-99.23233,-604.7957,-99.85694,-605.4711,-99.82562,-606.27295L-99.82562,-606.27295L-99.825584,-606.2739 Z"/>
</g>
<g>
<g style="fill:rgb(254,254,254); fill-opacity:1.0; stroke-linejoin: miter">
<path d="M487.69678,685.15436L487.69678,685.15533L487.69678,685.15533L487.69678,685.15533L487.69678,685.15436 Z M1049.0685,750.3368Q1057.9384,750.3368,1064.4573,755.86444Q1071.5864,761.9096,1072.6531,771.809L1072.7007,774.9941Q1071.9727,784.69196,1065.094,791.0363Q1058.4354,797.13153,1048.8325,797.13153Q1048.4408,797.13153,1048.0442,797.1214Q1038.3464,796.394,1032.0022,789.51514Q1029.9675,787.2903,1028.5466,784.58606L1027.3088,781.7875Q1026.2396,778.8819,1025.9644,775.6504Q1025.3986,765.7097,1031.4436,758.58093Q1037.4886,751.4521,1047.388,750.3852Q1048.2385,750.3368,1049.0685,750.3368 Z M1107.3098,862.12634L1107.3098,1470.6235L1107.3098,1470.6245L422.53394,1470.6248L422.53394,862.12854L422.52966,862.12854Q764.9143,862.12695,1107.2986,862.12634 Z M398.22095,685.15424C391.7729,685.15424,385.5888,687.7158,381.02936,692.27515C376.46985,696.83484,373.90826,703.01886,373.90833,709.467L373.90826,1494.9373C373.90826,1501.3855,376.46973,1507.5693,381.02936,1512.1292C385.58887,1516.6887,391.77295,1519.2502,398.2212,1519.2502L1131.6226,1519.249L1131.6228,1519.249C1145.05,1519.249,1155.9353,1508.3638,1155.9353,1494.9363L1155.9353,709.46814C1155.9353,696.04065,1145.0498,685.15533,1131.6226,685.15533L1024.783,685.15515L1024.783,685.1561L1024.7927,733.7528C1024.7981,759.7316,1005.6705,781.24615,980.7281,784.9729L980.7379,784.9729Q979.0479,787.73065,976.5409,790.0429Q969.8822,796.1381,960.27936,796.1381Q959.8876,796.1381,959.49097,796.128Q949.79333,795.4006,943.44904,788.5217Q941.41437,786.2969,939.99347,783.59265L938.7557,780.79407Q937.68646,777.8885,937.41113,774.657Q937.31537,772.9745,937.409,771.37256L937.4184,771.37256C927.4514,761.93713,921.2328,748.5822,921.2297,733.77423L921.21967,685.155L921.21967,685.156L591.2598,685.15454L591.2598,685.1555L591.25006,733.14667C591.24927,736.9424,590.8401,740.6427,590.0641,744.20593L647.9283,744.20593C661.09344,744.20593,671.7659,754.87823,671.7659,768.0434C671.7659,781.20844,661.09344,791.8809,647.9283,791.881L467.77875,791.8809C454.61365,791.88086,443.94116,781.2085,443.94116,768.0434C443.94116,754.87836,454.6136,744.20593,467.77863,744.20593C467.7787,744.20593,467.77872,744.20593,467.77875,744.20593L488.8731,744.20593C488.09558,740.63586,487.6863,736.92834,487.68707,733.1251L487.69678,685.15533L487.69678,685.15533L398.2212,685.15424 Z"/>
</g>
<g style="fill:rgb(254,254,254); fill-opacity:1.0; stroke-linejoin: miter">
<path d="M467.77863,744.20593C467.7787,744.20593,467.77872,744.20593,467.77875,744.20593L647.9283,744.20593C661.09344,744.20593,671.7659,754.87823,671.7659,768.0434C671.7659,781.20844,661.09344,791.8809,647.9283,791.881L467.77875,791.8809C454.61365,791.88086,443.94116,781.2085,443.94116,768.0434C443.94116,754.87836,454.6136,744.20593,467.77863,744.20593 Z M960.5152,749.3434Q969.38525,749.3434,975.9042,754.87103Q983.0333,760.9162,984.09985,770.8156L984.14746,774.0007Q983.41956,783.69855,976.5409,790.0429Q969.8822,796.1381,960.27936,796.1381Q959.8876,796.1381,959.49097,796.128Q949.79333,795.4006,943.44904,788.5217Q941.41437,786.2969,939.99347,783.59265L938.7557,780.79407Q937.68646,777.8885,937.41113,774.657Q936.8454,764.7163,942.8904,757.5875Q948.9355,750.4587,958.8347,749.3918Q959.68524,749.3434,960.5152,749.3434 Z M1049.0685,750.3368Q1057.9384,750.3368,1064.4573,755.86444Q1071.5864,761.9096,1072.6531,771.809L1072.7007,774.9941Q1071.9727,784.69196,1065.094,791.0363Q1058.4354,797.13153,1048.8325,797.13153Q1048.4408,797.13153,1048.0442,797.1214Q1038.3464,796.394,1032.0022,789.51514Q1029.9675,787.2903,1028.5466,784.58606L1027.3088,781.7875Q1026.2396,778.8819,1025.9644,775.6504Q1025.3986,765.7097,1031.4436,758.58093Q1037.4886,751.4521,1047.388,750.3852Q1048.2385,750.3368,1049.0685,750.3368 Z M442.93405,685.15424Q442.93405,745.12366,442.93405,805.0931Q763.0492,805.0924,1083.1644,805.0918Q1083.1644,745.12366,1083.1644,685.1556L763.0492,685.1549L442.93405,685.15424 Z"/>
</g>
</g>
<g style="fill:rgb(254,254,254); fill-opacity:1.0; stroke-linejoin: miter">
<path d="M768.2955,-79.11156L768.2955,-79.11156L768.2955,-79.11156L768.2955,-79.11156L768.2955,-79.11156L768.2955,-79.11156L768.2955,-79.11156L768.2955,-79.11156L768.2955,-79.11156L768.2955,-79.11156 M764.8189,-71.634415L764.8189,-71.634415L764.8189,-71.634415L764.8189,-71.634415L764.8189,-71.634415L764.8189,-71.634415L764.8189,-71.634415L764.8189,-71.634415L764.8189,-71.634415 Z"/>
</g>
<g style="fill:rgb(254,254,254); fill-opacity:1.0; stroke-linejoin: miter">
<path d="M911.06396,465.51248L983.5066,552.09766L1055.9492,638.68286L911.06396,465.51248"/>
</g>
<g style="fill:rgb(254,254,254); fill-opacity:1.0; stroke-linejoin: miter">
<path d="M684.998,1212.0134L728.68427,1126.5498L772.37054,1041.086L684.998,1212.0134"/>
</g>
<g style="fill:rgb(254,254,254); fill-opacity:1.0; stroke-linejoin: miter">
<path d="M693.5014,1194.1554L706.94745,1161.5219L720.3935,1128.8883L693.5014,1194.1554"/>
</g>
<g style="fill:rgb(254,254,254); fill-opacity:1.0; stroke-linejoin: miter">
<path d="M696.4776,1185.12L730.8102,1121.66L765.1427,1058.2001L696.4776,1185.12"/>
</g>
<g>
<g style="fill:rgb(254,254,254); fill-opacity:1.0; stroke-linejoin: miter">
<path d="M531.47485,1158.9271L531.47485,1158.9271C531.47473,1296.5052,643.0038,1408.0344,780.5819,1408.0344L780.5819,1408.0344C918.16016,1408.0345,1029.6893,1296.5054,1029.6893,1158.9272L1029.6893,1158.9272C1029.6893,1021.3489,918.1602,909.8199,780.58215,909.8198L780.58215,909.8198C643.00397,909.81976,531.47485,1021.34875,531.47485,1158.9271L531.47485,1158.9271 M580.1004,1158.9271L580.1004,1158.9271C580.1004,1048.2039,669.8591,958.4453,780.5821,958.4454L780.5821,958.4454C891.30505,958.44543,981.0637,1048.2041,981.0638,1158.9272L981.0638,1158.9272C981.06366,1269.6503,891.3051,1359.4088,780.582,1359.4087L780.582,1359.4087C669.859,1359.4087,580.1003,1269.6501,580.1004,1158.9271 Z"/>
</g>
<g>
<g style="fill:rgb(254,254,254); fill-opacity:1.0; stroke-linejoin: miter">
<path d="M702.9984,1031.7107C711.1841,1031.7888,718.82117,1036.9141,721.7074,1045.0796C730.1522,1068.9683,741.6411,1099.8499,735.6627,1130.0979L735.66284,1130.0979C735.4822,1131.0115,735.2876,1131.9163,735.08057,1132.812L735.08057,1132.8127C731.71387,1147.3806,724.5996,1160.9836,719.105,1171.677C713.26086,1183.0493,709.09607,1191.4082,707.30176,1199.1726C703.718,1214.6812,709.0593,1231.1274,717.5845,1254.6931C721.35034,1265.1038,715.964,1276.596,705.5537,1280.3618C703.2394,1281.1992,700.8717,1281.584,698.5471,1281.562C690.4155,1281.4844,682.8142,1276.4268,679.8855,1268.3306C672.2936,1247.345,661.5187,1219.2393,668.24146,1190.1458C671.3723,1176.5986,678.16394,1163.6367,683.4475,1153.3535L683.4475,1153.3533C689.4326,1141.7068,693.9794,1132.617,696.02026,1123.7871L696.02026,1123.7871C696.1345,1123.2925,696.23865,1122.8071,696.334,1122.3252L696.334,1122.3247C699.7716,1104.9314,693.3634,1085.1831,683.9099,1058.4407C680.22046,1048.0032,685.6908,1036.551,696.1284,1032.8613C698.4004,1032.0581,700.7206,1031.689,702.9984,1031.7107 Z M784.9149,1032.4915C793.1006,1032.5696,800.7379,1037.6948,803.62427,1045.8601C812.069,1069.7485,823.558,1100.6306,817.5796,1130.8782L817.5796,1130.8782L817.5796,1130.8784L817.57947,1130.8784C817.3989,1131.792,817.20435,1132.6968,816.9973,1133.5925L816.9972,1133.593C813.63074,1148.1614,806.5165,1161.7644,801.0221,1172.4578L801.0221,1172.4575C795.178,1183.8298,791.01306,1192.1892,789.21875,1199.9529C785.63525,1215.4619,790.97595,1231.9077,799.5017,1255.4741C803.26746,1265.8845,797.8811,1277.3765,787.4708,1281.1423C785.1565,1281.9797,782.7886,1282.3643,780.46387,1282.3423C772.3325,1282.2649,764.7311,1277.2073,761.8025,1269.1113C754.2107,1248.1255,743.4354,1220.0193,750.1583,1190.9265C753.28894,1177.3792,760.08057,1164.4165,765.3644,1154.1345L765.3644,1154.1343C771.3496,1142.487,775.8965,1133.3975,777.93713,1124.5669L777.93713,1124.5676C778.0514,1124.073,778.15564,1123.5874,778.2506,1123.1057L778.25073,1123.1052C781.68835,1105.7119,775.28015,1085.9636,765.8269,1059.2214C762.1373,1048.7839,767.60754,1037.3315,778.04504,1033.6421C780.31714,1032.8391,782.6372,1032.4697,784.9149,1032.4915 Z M866.08777,1033.2649C874.27344,1033.3428,881.9105,1038.4683,884.7969,1046.6335C893.24133,1070.522,904.73083,1101.4036,898.7521,1131.6516L898.7522,1131.6516C898.57166,1132.5654,898.3771,1133.4705,898.17017,1134.366L898.17017,1134.3667C894.80383,1148.935,887.68933,1162.5381,882.1946,1173.231L882.1946,1173.2307C876.3506,1184.6035,872.18567,1192.9626,870.3915,1200.7266C866.80786,1216.2351,872.14905,1232.6812,880.6743,1256.2476C884.44006,1266.6577,879.05383,1278.1499,868.64355,1281.9158C866.32935,1282.7529,863.9613,1283.1377,861.6367,1283.1155C853.5056,1283.0381,845.90405,1277.9805,842.97534,1269.8845C835.3834,1248.8987,824.6084,1220.793,831.33105,1191.7C834.46204,1178.1528,841.25354,1165.1902,846.53735,1154.9077L846.53735,1154.9075C852.5222,1143.2605,857.069,1134.1711,859.10974,1125.3411L859.10974,1125.3411C859.224,1124.8462,859.3281,1124.3608,859.42346,1123.8792L859.42346,1123.8787C862.8611,1106.4856,856.4529,1086.7373,846.99963,1059.9949C843.31006,1049.5574,848.78015,1038.1047,859.21765,1034.4158C861.48987,1033.6123,863.8102,1033.2434,866.08777,1033.2649 Z M782.8102,953.76044C668.48914,952.6708,574.92993,1044.4639,573.8408,1158.7859C572.75134,1273.1084,664.5448,1366.6677,778.86646,1367.7566L778.8667,1367.7566C893.1887,1368.8457,986.74695,1277.0535,987.83594,1162.7307C988.92456,1048.4092,897.1317,954.85004,782.8103,953.76044 Z"/>
</g>
<g style="fill:rgb(254,254,254); fill-opacity:1.0; stroke-linejoin: miter">
<path d="M638.0056,1008.82117L637.9979,1008.8286L637.9946,1008.82104 Z M983.6354,1185.3652L983.63367,1185.367L983.6321,1185.3652 Z M784.5565,947.0589C727.0735,946.80347,675.0619,970.45374,637.944,1008.67346C637.9402,1008.67737,637.9369,1008.6815,637.9342,1008.6858L637.94055,1008.6858L637.95935,1008.6935L637.9457,1008.70703L637.93823,1008.68933L637.93164,1008.68945C637.9226,1008.70447,637.91846,1008.7219,637.9197,1008.73914L637.9131,1008.73914L637.9104,1008.7417L637.9105,1008.7427C637.9103,1008.77795,637.9314,1008.81006,637.964,1008.8236C637.9745,1008.8281,637.9855,1008.83044,637.9967,1008.8302C638.01465,1008.8303,638.03235,1008.8247,638.04785,1008.8142L638.0415,1008.81396C638.05005,1008.8103,638.0582,1008.80493,638.0654,1008.79834C675.14294,974.7401,724.6565,954.05566,778.9098,954.2967C779.2832,954.2985,779.61,954.3007,779.9839,954.30536L779.985,954.3046L779.9929,954.3045C894.2621,955.39777,986.01184,1048.9158,984.9237,1163.1868C984.85266,1170.6489,984.3871,1178.0168,983.5477,1185.2683C983.5476,1185.269,983.5476,1185.27,983.5475,1185.2705L983.55615,1185.2703L983.5469,1185.2798L983.54724,1185.2798C983.54785,1185.3191,983.57495,1185.3535,983.6134,1185.3628L983.6035,1185.3628C983.6107,1185.3655,983.6183,1185.3672,983.62634,1185.3679C983.6289,1185.3682,983.6312,1185.3682,983.63354,1185.3682C983.6754,1185.3682,983.71204,1185.3384,983.7202,1185.2932L983.7202,1185.2932C985.661,1174.1663,986.6963,1162.7307,986.74805,1151.0564C987.24646,1038.8899,896.72266,947.5577,784.55664,947.0589 Z"/>
</g>
</g>
</g>
<g style="fill:rgb(254,254,254); fill-opacity:1.0; stroke-linejoin: miter">
<path d="M248.04634,348.32312L248.04634,348.32312L248.04634,348.32373C248.04634,354.05487,243.40034,358.70087,237.66922,358.70087C231.93808,358.70087,227.29208,354.05487,227.29208,348.32373L227.29208,348.32373L227.29208,348.32312C227.29208,342.59198,231.93808,337.94598,237.66922,337.94598C243.40034,337.94598,248.04634,342.59198,248.04634,348.32312 Z"/>
</g>
<g style="fill:rgb(254,254,254); fill-opacity:1.0; stroke-linejoin: miter">
<path d="M285.38568,338.18262L285.38568,338.18262L285.38568,338.18323C285.38568,343.91437,280.7397,348.56036,275.00854,348.56036C269.2774,348.56036,264.6314,343.91437,264.6314,338.18323L264.6314,338.18323L264.6314,338.18262C264.6314,332.45148,269.2774,327.80548,275.00854,327.80548C280.7397,327.80548,285.38568,332.45148,285.38568,338.18262 Z"/>
</g>
</g>
<g id="layer5">
<g style="fill:rgb(254,254,254); fill-opacity:1.0; stroke-linejoin: miter">
<path d="M405.2029,698.39575L405.2029,698.39575C443.17316,705.34344,473.65088,719.33124,503.09946,851.4736L503.09946,851.4736C532.2625,982.3351,562.5819,1237.9974,592.72485,1491.9713L575.63367,1476.7933L797.5764,1476.7236C807.079,1476.721,814.7846,1484.4215,814.7874,1493.924C814.7904,1503.4268,807.0895,1511.1326,797.58685,1511.1357L797.58685,1511.1357L575.6441,1511.2054C566.924,1511.2081,559.5807,1504.6871,558.5529,1496.0278L558.5529,1496.0278C528.285,1241.0023,498.19208,987.6557,469.5113,858.9592L469.5113,858.9592C441.11548,731.5407,416.31552,735.41315,399.0091,732.24646C389.66168,730.53595,383.47055,721.5717,385.18094,712.2241C386.89142,702.8766,395.8555,696.68524,405.2029,698.39575 Z"/>
</g>
<g style="fill:rgb(254,254,254); fill-opacity:1.0; stroke-linejoin: miter">
<path d="M1140.144,694.6237L1140.144,694.6237C1102.2471,701.9608,1071.9146,716.2607,1043.824,848.69836L1043.824,848.69836C1016.00574,979.85236,988.3123,1235.8124,960.77795,1490.0824L977.7124,1474.7297L755.78064,1476.9382C746.27856,1477.0331,738.6524,1484.8124,738.74713,1494.3143C738.8417,1503.8167,746.6213,1511.443,756.1235,1511.3486L756.1235,1511.3486L978.05524,1509.1401C986.7749,1509.0532,994.0509,1502.4573,994.98975,1493.788L994.98975,1493.788C1022.6383,1238.4651,1050.129,984.82294,1077.4873,855.8388L1077.4873,855.8388C1104.5736,728.1355,1129.4121,731.75323,1146.685,728.40906C1156.0144,726.60266,1162.1132,717.5754,1160.3069,708.2458C1158.5006,698.9163,1149.4734,692.8173,1140.144,694.6237 Z"/>
</g>
<g style="fill:rgb(254,254,254); fill-opacity:1.0; stroke-linejoin: miter">
<path d="M592.13257,765.62744L592.13257,765.62744L668.66675,1472.768C669.6893,1482.2156,662.85956,1490.703,653.41223,1491.7256C643.965,1492.7485,635.4773,1485.9182,634.4548,1476.4711L634.4548,1476.4711L557.9203,769.33057C556.8978,759.88293,563.7274,751.3951,573.17487,750.3726C582.6224,749.3501,591.11005,756.17993,592.13257,765.62744 Z"/>
</g>
<g style="fill:rgb(254,254,254); fill-opacity:1.0; stroke-linejoin: miter">
<path d="M953.9144,763.7706L953.9144,763.7706L884.64294,1471.6595C883.7174,1481.1172,890.634,1489.534,900.0912,1490.4596C909.54846,1491.3855,917.96564,1484.4684,918.8911,1475.0112L918.8911,1475.0112L988.1629,767.12244C989.0883,757.6648,982.17194,749.24744,972.7145,748.322C963.25696,747.39655,954.8399,754.3131,953.9144,763.7706 Z"/>
</g>
<g style="fill:rgb(254,254,254); fill-opacity:1.0; stroke-linejoin: miter">
<path d="M720.71844,767.19507L720.71844,767.19507L751.2392,1481.6276C751.6447,1491.1217,744.2774,1499.1466,734.7835,1499.5524C725.28955,1499.9581,717.26447,1492.5908,716.8588,1483.0964L716.8588,1483.0964L686.33795,768.6641C685.93225,759.1699,693.2998,751.14453,702.79376,750.7389C712.28766,750.3333,720.3129,757.7008,720.71844,767.19507 Z"/>
</g>
<g style="fill:rgb(254,254,254); fill-opacity:1.0; stroke-linejoin: miter">
<path d="M825.3513,766.6581L825.3513,766.6581L802.1658,1481.3662C801.8577,1490.8641,809.30707,1498.813,818.8046,1499.1212C828.3022,1499.4294,836.2513,1491.9802,836.5594,1482.4822L836.5594,1482.4822L859.7451,767.7742C860.05334,758.2763,852.6038,750.32697,843.1062,750.0188C833.60864,749.7107,825.6594,757.1602,825.3513,766.6581 Z"/>
</g>
<g style="fill:rgb(254,254,254); fill-opacity:1.0; stroke-linejoin: miter">
<path d="M-99.28728,-410.72668L-99.28728,-410.72668L-99.28728,-410.72565C-99.28728,-404.9945,-103.93327,-400.3485,-109.664406,-400.3485C-115.39553,-400.3485,-120.041534,-404.9945,-120.041534,-410.72562L-120.041534,-410.72562L-120.041534,-410.72668C-120.041534,-416.45782,-115.39554,-421.10382,-109.664406,-421.10382C-103.93328,-421.10382,-99.28728,-416.45782,-99.28728,-410.72668 Z"/>
</g>
<g style="fill:rgb(254,254,254); fill-opacity:1.0; stroke-linejoin: miter">
<path d="M1492.0374,-410.727L1492.0374,-410.727L1492.0374,-410.72595C1492.0374,-404.9948,1496.6833,-400.34882,1502.4144,-400.34882C1508.1456,-400.34882,1512.7916,-404.99484,1512.7916,-410.72595L1512.7916,-410.72595L1512.7916,-410.72702C1512.7916,-416.45816,1508.1456,-421.10413,1502.4144,-421.10413C1496.6833,-421.10413,1492.0374,-416.45813,1492.0374,-410.727 Z"/>
</g>
<g style="fill:rgb(254,254,254); fill-opacity:1.0; stroke-linejoin: miter">
<path d="M472.5351,748.12396L472.5351,748.12396L1077.102,744.61145C1086.5461,744.55646,1094.2466,752.1681,1094.3013,761.61224C1094.3561,771.05646,1086.7446,778.757,1077.301,778.81213L1077.301,778.81213L472.73364,782.3245C463.28964,782.3794,455.58936,774.7679,455.53445,765.3236C455.47958,755.8792,463.091,748.1787,472.5351,748.12396 Z"/>
</g>
<g style="fill:rgb(254,254,254); fill-opacity:1.0; stroke-linejoin: miter">
<path d="M496.27808,855.99475L496.27808,855.99475L1045.3201,857.6042C1054.9312,857.6324,1062.7,865.4468,1062.672,875.05804C1062.6439,884.6693,1054.8296,892.4378,1045.2184,892.4097L1045.2184,892.4097L496.17612,890.79865C486.56577,890.77045,478.79788,882.95624,478.82608,873.3454C478.85428,863.73474,486.66782,855.9668,496.27808,855.99475 Z"/>
</g>
<g style="fill:rgb(254,254,254); fill-opacity:1.0; stroke-linejoin: miter">
<path d="M527.8855,985.9594L527.8855,985.9594L1021.8856,983.4206C1031.3882,983.37177,1039.1309,991.0356,1039.1797,1000.5382C1039.2283,1010.0407,1031.5646,1017.7837,1022.06226,1017.8329L1022.06226,1017.8329L528.0622,1020.37134C518.5597,1020.4203,510.8169,1012.7562,510.76807,1003.2535C510.71924,993.7512,518.383,986.0081,527.8855,985.9594 Z"/>
</g>
<g style="fill:rgb(254,254,254); fill-opacity:1.0; stroke-linejoin: miter">
<path d="M541.1511,1117.5149L541.1511,1117.5149L1005.82916,1115.1265C1015.3315,1115.0778,1023.07434,1122.7417,1023.12305,1132.2441C1023.17175,1141.7468,1015.5081,1149.4897,1006.0058,1149.5386L1006.0058,1149.5386L541.3278,1151.927C531.8255,1151.976,524.0826,1144.3123,524.0338,1134.8096C523.985,1125.3068,531.64874,1117.5637,541.1511,1117.5149 Z"/>
</g>
<g style="fill:rgb(254,254,254); fill-opacity:1.0; stroke-linejoin: miter">
<path d="M553.4537,1243.4697L553.4537,1243.4697L992.0531,1241.2148C1001.5555,1241.166,1009.2983,1248.8298,1009.34686,1258.3324C1009.39557,1267.8351,1001.73224,1275.5782,992.2298,1275.6271L992.2298,1275.6271L553.6304,1277.882C544.1279,1277.9308,536.385,1270.2668,536.33624,1260.7643C536.2874,1251.2616,543.9512,1243.5186,553.4537,1243.4697 Z"/>
</g>
<g style="fill:rgb(254,254,254); fill-opacity:1.0; stroke-linejoin: miter">
<path d="M565.4467,1355.8097L565.4467,1355.8097L984.071,1354.4934C993.84064,1354.4629,1001.78467,1362.3577,1001.8147,1372.1271C1001.8448,1381.8962,993.9492,1389.8408,984.17975,1389.8713L984.17975,1389.8713L565.558,1391.1875C555.7885,1391.2183,547.8439,1383.3234,547.81305,1373.554C547.7822,1363.785,555.6772,1355.8405,565.4467,1355.8097 Z"/>
</g>
<g style="fill:rgb(254,254,254); fill-opacity:1.0; stroke-linejoin: miter">
<path d="M122.79176,205.88559L122.79176,205.88559L122.79176,205.88641C122.79176,211.61755,118.14576,216.26355,112.414635,216.26355C106.6835,216.26355,102.0375,211.61754,102.0375,205.88641L102.0375,205.88641L102.0375,205.88559C102.037506,200.15445,106.68351,195.50845,112.41464,195.50845C118.14577,195.50847,122.79177,200.15446,122.79176,205.88559 Z"/>
</g>
</g>
</svg>