<?xml version="1.0" encoding="utf-8"?>
<svg xmlns="http://www.w3.org/2000/svg" xmlns:xlink="http://www.w3.org/1999/xlink" version= "1.1" width="1600px" height="1733px" viewBox="0 0 1600 1733">
<g id="layer1" opacity="0.0">
<g style="fill:rgb(0,0,0); fill-opacity:1.0; stroke-linejoin: miter">
<path d="M0.0,428.99963L800.0,429.00012L1600.0,429.00064L1600.0,2028.9996Q800.0,2029.0002,0.0,2029.0009Q0.0,1229.0002,0.0,428.99963"/>
</g>
<g style="fill:rgb(132,0,175); fill-opacity:1.0; stroke-linejoin: miter">
<path d="M1.4529252,0.0L1.4529252,0.0L1.4529252,0.001L-1.4529252,0.001L-1.4529252,0.0L1.4529252,0.0L1.4529252,0.001L-1.4529252,0.001L-1.4529252,0.0L1.4529252,0.0 M-1.4529252,0.0C-1.4529252,-0.8024285,-0.8024285,-1.4529252,0.0,-1.4529252C0.8024285,-1.4529252,1.4529252,-0.8024285,1.4529252,0.0L1.4529252,0.0L1.4529252,0.001C1.4529252,0.8034285,0.8024285,1.4539253,0.0,1.4539253C-0.8024285,1.4539253,-1.4529252,0.8034285,-1.4529252,0.001L-1.4529252,0.001L-1.4529252,0.0C-1.4529252,-0.8024285,-0.8024285,-1.4529252,0.0,-1.4529252C0.8024285,-1.4529252,1.4529252,-0.8024285,1.4529252,0.0L1.4529252,0.0L1.4529252,0.001C1.4529252,0.8034285,0.8024285,1.4539253,0.0,1.4539253C-0.8024285,1.4539253,-1.4529252,0.8034285,-1.4529252,0.001L-1.4529252,0.001L-1.4529252,0.0 Z"/>
</g>
<g style="fill:rgb(132,0,175); fill-opacity:1.0; stroke-linejoin: miter">
<path d="M1.4529252,0.0L1.4529252,0.0L1.4529252,0.001L-1.4529252,0.001L-1.4529252,0.0L1.4529252,0.0L1.4529252,0.001L-1.4529252,0.001L-1.4529252,0.0L1.4529252,0.0 M-1.4529252,0.0C-1.4529252,-0.8024285,-0.8024285,-1.4529252,0.0,-1.4529252C0.8024285,-1.4529252,1.4529252,-0.8024285,1.4529252,0.0L1.4529252,0.0L1.4529252,0.001C1.4529252,0.8034285,0.8024285,1.4539253,0.0,1.4539253C-0.8024285,1.4539253,-1.4529252,0.8034285,-1.4529252,0.001L-1.4529252,0.001L-1.4529252,0.0C-1.4529252,-0.8024285,-0.8024285,-1.4529252,0.0,-1.4529252C0.8024285,-1.4529252,1.4529252,-0.8024285,1.4529252,0.0L1.4529252,0.0L1.4529252,0.001C1.4529252,0.8034285,0.8024285,1.4539253,0.0,1.4539253C-0.8024285,1.4539253,-1.4529252,0.8034285,-1.4529252,0.001L-1.4529252,0.001L-1.4529252,0.0 Z"/>
</g>
</g>
<g id="layer2" opacity="0.0">
<g style="fill:rgb(254,254,254); fill-opacity:1.0; stroke-linejoin: miter">
<path d="M413.4715,695.1311L413.4715,695.1311L415.771,1513.769C415.82184,1531.874,401.18607,1546.5922,383.08105,1546.6431C364.97604,1546.694,350.2578,1532.0581,350.20697,1513.9531L350.20697,1513.9531L347.90747,695.3153C347.85663,677.2103,362.4924,662.492,380.5974,662.44116C398.70242,662.3903,413.42065,677.0261,413.4715,695.1311 Z"/>
</g>
<g style="fill:rgb(254,254,254); fill-opacity:1.0; stroke-linejoin: miter">
<path d="M383.71786,659.1651L383.71786,659.1651L1140.7432,656.108C1159.096,656.0339,1174.0339,670.8516,1174.108,689.2044C1174.1821,707.5572,1159.3643,722.4952,1141.0115,722.5693L1141.0115,722.5693L383.98624,725.6264C365.63345,725.7005,350.6955,710.88275,350.62137,692.52997C350.54724,674.1772,365.36508,659.2392,383.71786,659.1651 Z"/>
</g>
<g style="fill:rgb(254,254,254); fill-opacity:1.0; stroke-linejoin: miter">
<path d="M1180.8303,690.0215L1180.8303,690.0215L1179.4825,1513.1951C1179.4524,1531.5977,1164.5098,1546.4915,1146.1072,1546.4613C1127.7046,1546.4312,1112.8108,1531.4885,1112.841,1513.0859L1112.841,1513.0859L1114.1887,689.91235C1114.2189,671.5098,1129.1615,656.616,1147.5641,656.6462C1165.9667,656.67633,1180.8605,671.61896,1180.8303,690.0215 Z"/>
</g>
<g style="fill:rgb(254,254,254); fill-opacity:1.0; stroke-linejoin: miter">
<path d="M382.62573,1481.498L382.62573,1481.498L1145.0278,1481.2666C1163.1075,1481.2611,1177.7684,1495.9132,1177.7739,1513.9929C1177.7794,1532.0726,1163.1273,1546.7335,1145.0476,1546.739L1145.0476,1546.739L382.64563,1546.9705C364.56595,1546.976,349.905,1532.3239,349.8995,1514.2441C349.894,1496.1644,364.54605,1481.5035,382.62573,1481.498 Z"/>
</g>
<g style="fill:rgb(254,254,254); fill-opacity:1.0; stroke-linejoin: miter">
<path d="M401.3,705.5982C401.01068,705.6013,400.7778,705.83716,400.7784,706.12646L402.7168,1499.5226C402.71722,1499.6631,402.77368,1499.7977,402.87357,1499.8964L402.87268,1499.8973C402.96915,1499.9922,403.10254,1500.0507,403.24942,1500.0491C403.26047,1500.0488,403.2714,1500.0483,403.2823,1500.0476L403.28665,1500.0488L1135.1411,1492.4207C1135.281,1492.4192,1135.4143,1492.3624,1135.5121,1492.2622C1135.6102,1492.1626,1135.664,1492.028,1135.6628,1491.8882L1135.6627,1491.8868L1135.6627,1491.8845L1123.4019,700.6768L1123.4021,700.67847C1123.399,700.388,1123.1615,700.1547,1122.8711,700.15674L401.3015,705.5982 Z"/>
</g>
<g style="fill:rgb(254,254,254); fill-opacity:1.0; stroke-linejoin: miter">
<path d="M950.997,726.5351L950.997,726.5351L994.99475,726.53613L957.44464,763.56274Q959.9859,582.2561,958.93604,567.0015L958.93604,567.0009Q959.1273,569.7808,960.13007,573.26245L964.5051,582.9848Q969.12354,590.2654,976.1045,590.1062L976.1044,590.1062Q976.08405,590.1067,976.0417,590.10925L976.04126,590.10925Q976.022,590.1104,976.0144,590.1111L976.0149,590.1111Q983.81396,589.4384,987.58,580.6965L990.6398,565.2568Q990.9396,584.601,988.54565,764.58746C988.26984,785.3255,971.2347,801.9134,950.49664,801.6376C929.7586,801.36176,913.1707,784.3266,913.44653,763.58856L913.44653,763.58856Q915.82605,584.6855,915.54297,566.4207C915.46075,561.1158,916.5036,555.85364,918.6027,550.981L918.6027,550.981Q932.6084,518.4703,969.5609,515.2831L969.5614,515.2831Q970.5065,515.2016,971.45996,515.1433L971.45953,515.1433Q972.935,515.0531,974.3922,515.0199L974.3921,515.0199Q1009.8218,514.2119,1027.927,542.7536C1029.8403,545.76984,1031.3136,549.0436,1032.3021,552.47595L1032.3021,552.47595Q1033.508,556.66327,1033.8646,561.8453L1033.8646,561.84467Q1035.1279,580.1996,1032.5431,764.61536C1032.2552,785.1483,1015.5279,801.64246,994.9929,801.64197L994.9929,801.64197L950.9952,801.6409C930.2553,801.64044,913.4427,784.82697,913.4432,764.0871C913.44366,743.3472,930.25714,726.5346,950.997,726.5351 Z"/>
</g>
<g style="fill:rgb(254,254,254); fill-opacity:1.0; stroke-linejoin: miter">
<path d="M829.51746,1042.1051L829.51746,1042.1051L820.06055,1042.1061L857.6101,1004.55255L857.6101,1009.237L820.06055,971.68353L829.51746,971.6845L791.9601,1009.238L791.9601,1004.5516L829.51746,1042.1051 M829.50964,966.9981C839.4701,966.9971,849.023,970.9532,856.06647,977.9959C863.1099,985.0387,867.067,994.5911,867.067,1004.5516L867.067,1004.5516L867.067,1009.238C867.067,1019.1984,863.1099,1028.751,856.06647,1035.7937C849.023,1042.8364,839.4701,1046.7925,829.50964,1046.7915L829.50964,1046.7915L820.05273,1046.7905C799.314,1046.7883,782.5032,1029.9757,782.5032,1009.237L782.5032,1009.237L782.5032,1004.55255C782.5032,983.81384,799.314,967.0012,820.05273,966.9991L820.05273,966.9991L829.50964,966.9981 Z"/>
</g>
<g style="fill:rgb(254,254,254); fill-opacity:1.0; stroke-linejoin: miter">
<path d="M517.26013,726.5355L517.26013,726.5355L561.25793,726.53656L523.70776,763.563Q526.249,582.25745,525.1992,567.0029L525.1992,567.0023Q525.3905,569.7822,526.3932,573.26385L530.7683,582.98615Q535.3867,590.26666,542.3677,590.1075L542.36755,590.1075Q542.34717,590.108,542.3048,590.11053L542.30444,590.11053Q542.28516,590.1117,542.2776,590.11237L542.2781,590.11237Q550.07715,589.4397,553.84314,580.6978L556.90295,565.25824Q557.20276,584.60236,554.80884,764.5877C554.53296,785.3256,537.4978,801.9134,516.75977,801.6376C496.02176,801.36176,479.43387,784.3267,479.7097,763.5888L479.7097,763.5888Q482.0892,584.6868,481.80612,566.4222C481.7239,561.11725,482.76675,555.85516,484.86588,550.98254L484.86588,550.98254Q498.87155,518.47205,535.8241,515.28485L535.8246,515.28485Q536.76965,515.20337,537.72314,515.1451L537.72266,515.1451Q539.1981,515.0549,540.6554,515.02167L540.6553,515.02167Q576.08496,514.2137,594.1902,542.75525C596.1035,545.7715,597.5768,549.04517,598.5653,552.47754L598.5653,552.47754Q599.77124,556.66486,600.1278,561.8468L600.1278,561.8462Q601.3911,580.201,598.8063,764.61566C598.51843,785.1485,581.791,801.64246,561.2561,801.64197L561.2561,801.64197L517.2583,801.6409C496.51846,801.64044,479.70584,784.8271,479.70633,764.08734C479.70682,743.3476,496.5203,726.53503,517.26013,726.5355 Z"/>
</g>
</g>
<g id="layer3">
<g style="fill:rgb(132,0,175); fill-opacity:1.0; stroke-linejoin: miter">
<path d="M-96.92194,-606.1605L-96.92194,-606.1605L-96.92198,-606.15955L-99.82562,-606.27295L-99.825584,-606.2739L-96.92194,-606.1605L-96.92198,-606.15955L-99.82562,-606.27295L-99.825584,-606.2739L-96.92194,-606.1605 M-99.825584,-606.2739C-99.794266,-607.07574,-99.11887,-607.7004,-98.317055,-607.66907C-97.515236,-607.63776,-96.890625,-606.96234,-96.92194,-606.1605L-96.92194,-606.1605L-96.92198,-606.15955C-96.9533,-605.3577,-97.62869,-604.7331,-98.43051,-604.7644C-99.23233,-604.7957,-99.85694,-605.4711,-99.82562,-606.27295L-99.82562,-606.27295L-99.825584,-606.2739C-99.794266,-607.07574,-99.11887,-607.7004,-98.317055,-607.66907C-97.515236,-607.63776,-96.890625,-606.96234,-96.92194,-606.1605L-96.92194,-606.1605L-96.92198,-606.15955C-96.9533,-605.3577,-97.62869,-604.7331,-98.43051,-604.7644C-99.23233,-604.7957,-99.85694,-605.4711,-99.82562,-606.27295L-99.82562,-606.27295L-99.825584,-606.2739 Z"/>
</g>
<g style="fill:rgb(87,5,139); fill-opacity:1.0; stroke-linejoin: miter">
<path d="M1107.3098,862.12634L1107.3098,1470.6235L1107.3098,1470.6245L422.53394,1470.6248L422.53394,1470.6257L422.53394,862.12756L422.52966,862.12854Q764.9143,862.12695,1107.2986,862.12634 Z M398.22095,685.15424C391.7729,685.15424,385.5888,687.7158,381.02936,692.27515C376.46985,696.83484,373.90826,703.01886,373.90833,709.467L373.90826,1494.9373C373.90826,1501.3855,376.46973,1507.5693,381.02936,1512.1292C385.58887,1516.6887,391.77295,1519.2502,398.2212,1519.2502L1131.6226,1519.249C1131.6228,1519.249,1131.6228,1519.249,1131.6228,1519.249C1145.05,1519.249,1155.9353,1508.3638,1155.9353,1494.9363L1155.9353,709.46814C1155.9353,696.04065,1145.0498,685.15533,1131.6226,685.15533L1024.783,685.15515L1024.783,685.1561L1024.7927,733.7528C1024.7986,762.3504,1001.6198,785.53827,973.02167,785.544C973.018,785.544,973.01434,785.544,973.0108,785.544C944.41754,785.544,921.23566,762.36816,921.2297,733.77423L921.21967,685.155L921.21967,685.156L591.2598,685.15454L591.2598,685.1555L591.25006,733.14667C591.2442,761.74066,568.0621,784.9168,539.4692,784.9168C539.4655,784.9168,539.46173,784.9168,539.45807,784.9168C510.86,784.91095,487.68127,761.7229,487.68707,733.1251L487.69678,685.15436L487.69678,685.15533L398.2212,685.15424C398.22107,685.15424,398.221,685.15424,398.22095,685.15424 Z"/>
</g>
<g style="fill:rgb(87,5,139); fill-opacity:1.0; stroke-linejoin: miter">
<path d="M499.825,729.77313L499.825,729.77313L499.8249,578.4556C499.8249,556.49097,517.6307,538.68506,539.59534,538.68506C561.56,538.68506,579.3659,556.49084,579.3659,578.4555L579.3659,578.4555L579.366,729.773C579.366,751.7377,561.56024,769.5435,539.5956,769.5435C517.6309,769.5435,499.82507,751.7378,499.825,729.77313 Z"/>
</g>
<g style="fill:rgb(87,5,139); fill-opacity:1.0; stroke-linejoin: miter">
<path d="M933.7305,729.7733L933.7305,729.7733L933.7305,578.4568C933.7305,556.4926,951.536,538.68713,973.5002,538.68713C995.46436,538.68713,1013.26984,556.4926,1013.26984,578.4568L1013.26984,578.4568L1013.26984,729.7733C1013.26984,751.7375,995.46436,769.5429,973.5002,769.5429C951.536,769.5429,933.7305,751.7375,933.7305,729.7733 Z"/>
</g>
<g>
<g style="fill:rgb(87,5,139); fill-opacity:1.0; stroke-linejoin: miter">
<path d="M1014.84906,1159.1075L1014.84906,1159.1075C1014.84906,1296.686,903.31995,1408.215,765.7416,1408.215L765.7416,1408.215C628.163,1408.215,516.6341,1296.6857,516.6341,1159.1075L516.6341,1159.1075C516.6341,1021.52936,628.1632,910.0002,765.7416,910.0002L765.7416,910.0002C903.31995,910.0002,1014.84906,1021.5291,1014.84906,1159.1075L1014.84906,1159.1075 M966.22345,1159.1075L966.22345,1159.1075C966.22345,1048.3843,876.4647,958.6258,765.7416,958.6258L765.7416,958.6258C655.01843,958.6258,565.2597,1048.3844,565.2597,1159.1075L565.2597,1159.1075C565.2597,1269.8306,655.01825,1359.5892,765.7416,1359.5892L765.7416,1359.5892C876.4647,1359.5892,966.22345,1269.8308,966.22345,1159.1075 Z"/>
</g>
<g style="fill:rgb(87,5,139); fill-opacity:1.0; stroke-linejoin: miter">
<path d="M1054.2921,1112.7112L1054.2921,1112.7112L1054.2921,1203.7933L1054.2921,1243.5638L974.7511,1243.5638L974.7511,1203.7933L974.7511,1112.7112L974.7511,1072.9407L1054.2921,1072.9407 Z"/>
</g>
</g>
<g style="fill:rgb(3,130,244); fill-opacity:1.0; stroke-linejoin: miter">
<path d="M635.92645,1080.8832L635.92645,1080.8842C634.55817,1080.8832,633.19196,1080.9122,631.8276,1080.9707C620.88965,1081.4397,610.1459,1083.8014,599.5003,1088.2156C596.1586,1089.6012,592.8265,1091.1901,589.5042,1092.9604L589.5102,1092.9614C583.2176,1111.5859,579.4605,1131.7021,579.04926,1153.3307C578.7205,1170.6178,581.1166,1187.2319,585.42773,1203.1641L593.3112,1226.328C599.5852,1241.3561,607.55963,1255.2874,617.35767,1268.0278C647.7699,1307.5718,688.5538,1331.8842,739.76746,1339.9337C748.71155,1341.3394,757.56335,1341.4772,766.16943,1341.4773C808.8584,1341.4772,846.80927,1328.8835,879.8668,1303.4938C919.43036,1273.1074,943.34705,1232.2366,951.7718,1181.0828L953.6409,1155.6785C953.62396,1154.7883,953.60223,1153.9008,953.57587,1153.0157L953.56635,1153.0167C946.7172,1159.0964,939.4895,1164.6906,931.8856,1169.1315C917.315,1177.6415,901.2264,1181.9673,884.34656,1182.691C882.637,1182.7645,880.9192,1182.8008,879.1937,1182.8008C859.15405,1182.8008,838.10504,1177.8956,817.3205,1169.0039C810.86664,1166.2429,804.4382,1163.0979,798.0297,1159.673C780.7364,1150.431,763.7634,1139.2444,747.1537,1128.2875L747.1533,1128.2885L747.0115,1128.1937L747.0116,1128.1947L746.9026,1128.1217C731.3824,1117.8838,716.14154,1107.8304,701.504,1100.0077C678.66895,1087.8035,657.0508,1080.883,635.92645,1080.8832L635.92645,1080.8842 Z"/>
</g>
<g style="fill:rgb(87,5,139); fill-opacity:1.0; stroke-linejoin: miter">
<path d="M735.42926,1195.6306L735.42926,1195.6306L735.4293,1013.23206C735.4293,999.8044,746.3146,988.9193,759.74207,988.9193C773.1696,988.9193,784.0548,999.80444,784.05493,1013.2321L784.05493,1013.2321L784.0548,1195.6306C784.0548,1209.0583,773.16956,1219.9434,759.742,1219.9435C746.3144,1219.9435,735.42926,1209.0583,735.42926,1195.6306 Z"/>
</g>
<g style="fill:rgb(87,5,139); fill-opacity:1.0; stroke-linejoin: miter">
<path d="M747.65186,1174.487L747.65186,1174.487L826.96216,1118.832C837.8937,1111.1608,852.9741,1113.804,860.64526,1124.7358C868.3163,1135.6672,865.6732,1150.7478,854.7417,1158.419L854.7417,1158.419L775.43134,1214.0741C764.4998,1221.7451,749.4194,1219.1019,741.7483,1208.1703C734.0772,1197.2385,736.72034,1182.1583,747.65186,1174.487 Z"/>
</g>
</g>
<g id="layer4">
<g style="fill:rgb(254,254,254); fill-opacity:1.0; stroke-linejoin: miter">
<path d="M735.42926,1120.586L735.42926,1195.6306C735.42926,1209.0583,746.3144,1219.9435,759.742,1219.9435C766.0586,1219.9435,771.81256,1217.5345,776.13544,1213.5854L776.1277,1213.5854L831.78296,1174.5299L831.7913,1174.5299C826.96405,1172.9094,822.1352,1171.0636,817.3205,1169.0039C810.86664,1166.2429,804.4382,1163.0979,798.0297,1159.673C780.7364,1150.431,763.7634,1139.2444,747.1537,1128.2875L747.1533,1128.2885L747.0115,1128.1937L747.0116,1128.1947L746.9026,1128.1217C743.0619,1125.5881,739.2382,1123.0659,735.43665,1120.586 Z"/>
</g>
</g>
</svg>